<svg width="23" height="20" viewBox="0 0 23 20" fill="none" xmlns="http://www.w3.org/2000/svg">
<path d="M1.5 8.2C1.5 7.0799 1.5 6.51984 1.71799 6.09202C1.90973 5.71569 2.21569 5.40973 2.59202 5.21799C3.01984 5 3.57989 5 4.7 5H18.3C19.4201 5 19.9802 5 20.408 5.21799C20.7843 5.40973 21.0903 5.71569 21.282 6.09202C21.5 6.51984 21.5 7.0799 21.5 8.2V15.8C21.5 16.9201 21.5 17.4802 21.282 17.908C21.0903 18.2843 20.7843 18.5903 20.408 18.782C19.9802 19 19.4201 19 18.3 19H4.7C3.5799 19 3.01984 19 2.59202 18.782C2.21569 18.5903 1.90973 18.2843 1.71799 17.908C1.5 17.4802 1.5 16.9201 1.5 15.8V8.2Z" fill="#F0EAF2"/>
<path d="M15.5 5C15.5 4.07003 15.5 3.60504 15.3978 3.22354C15.1204 2.18827 14.3117 1.37962 13.2765 1.10222C12.895 1 12.43 1 11.5 1C10.57 1 10.105 1 9.72354 1.10222C8.68827 1.37962 7.87962 2.18827 7.60222 3.22354C7.5 3.60504 7.5 4.07003 7.5 5M4.7 19H18.3C19.4201 19 19.9802 19 20.408 18.782C20.7843 18.5903 21.0903 18.2843 21.282 17.908C21.5 17.4802 21.5 16.9201 21.5 15.8V8.2C21.5 7.07989 21.5 6.51984 21.282 6.09202C21.0903 5.71569 20.7843 5.40973 20.408 5.21799C19.9802 5 19.4201 5 18.3 5H4.7C3.57989 5 3.01984 5 2.59202 5.21799C2.21569 5.40973 1.90973 5.71569 1.71799 6.09202C1.5 6.51984 1.5 7.07989 1.5 8.2V15.8C1.5 16.9201 1.5 17.4802 1.71799 17.908C1.90973 18.2843 2.21569 18.5903 2.59202 18.782C3.01984 19 3.5799 19 4.7 19Z" stroke="#6C2F80" stroke-width="1.5" stroke-linecap="round" stroke-linejoin="round"/>
</svg>
