<svg width="36" height="36" viewBox="0 0 36 36" fill="none" xmlns="http://www.w3.org/2000/svg">
<path d="M19.9998 22.6667C19.9998 23.7712 19.1044 24.6667 17.9998 24.6667C16.8952 24.6667 15.9998 23.7712 15.9998 22.6667M19.1975 14.159C19.4878 13.8591 19.6665 13.4504 19.6665 13C19.6665 12.0795 18.9203 11.3333 17.9998 11.3333C17.0793 11.3333 16.3331 12.0795 16.3331 13C16.3331 13.4504 16.5118 13.8591 16.8021 14.159M21.9998 17.4667C21.9998 16.5473 21.5784 15.6655 20.8282 15.0154C20.0781 14.3652 19.0607 14 17.9998 14C16.9389 14 15.9215 14.3652 15.1714 15.0154C14.4212 15.6655 13.9998 16.5473 13.9998 17.4667C13.9998 18.9879 13.6226 20.1004 13.1519 20.8965C12.6154 21.8038 12.3471 22.2574 12.3577 22.3658C12.3698 22.4898 12.3922 22.5289 12.4927 22.6024C12.5806 22.6667 13.0222 22.6667 13.9053 22.6667H22.0944C22.9775 22.6667 23.419 22.6667 23.5069 22.6024C23.6075 22.5289 23.6298 22.4898 23.6419 22.3658C23.6525 22.2574 23.3843 21.8038 22.8478 20.8965C22.3771 20.1004 21.9998 18.9879 21.9998 17.4667Z" stroke="#6C2F80" stroke-width="1.5" stroke-linecap="round" stroke-linejoin="round"/>
</svg>
