<svg width="19" height="20" viewBox="0 0 19 20" fill="none" xmlns="http://www.w3.org/2000/svg">
<path d="M9.5 13C6.32993 13 3.5108 14.5306 1.716 16.906C1.32971 17.4172 1.13656 17.6728 1.14288 18.0183C1.14776 18.2852 1.31536 18.6219 1.52537 18.7867C1.79719 19 2.17387 19 2.92724 19H16.0728C16.8261 19 17.2028 19 17.4746 18.7867C17.6846 18.6219 17.8522 18.2852 17.8571 18.0183C17.8634 17.6728 17.6703 17.4172 17.284 16.906C15.4892 14.5306 12.6701 13 9.5 13Z" stroke="#535054" stroke-width="1.5" stroke-linecap="round" stroke-linejoin="round"/>
<path d="M9.5 10C11.9853 10 14 7.98528 14 5.5C14 3.01472 11.9853 1 9.5 1C7.01472 1 5 3.01472 5 5.5C5 7.98528 7.01472 10 9.5 10Z" stroke="#535054" stroke-width="1.5" stroke-linecap="round" stroke-linejoin="round"/>
</svg>
