<svg width="21" height="22" viewBox="0 0 21 22" fill="none" xmlns="http://www.w3.org/2000/svg">
<path d="M7.89513 18.3711L8.47958 19.6856C8.65332 20.0768 8.93686 20.4093 9.2958 20.6426C9.65475 20.8759 10.0737 21.0001 10.5018 21C10.9299 21.0001 11.3488 20.8759 11.7078 20.6426C12.0667 20.4093 12.3503 20.0768 12.524 19.6856L13.1085 18.3711C13.3165 17.9047 13.6665 17.5159 14.1085 17.26C14.5533 17.0034 15.0678 16.8941 15.5785 16.9478L17.0085 17.1C17.4341 17.145 17.8637 17.0656 18.2452 16.8713C18.6266 16.6771 18.9435 16.3763 19.1574 16.0056C19.3715 15.635 19.4736 15.2103 19.4511 14.7829C19.4286 14.3555 19.2826 13.9438 19.0307 13.5978L18.184 12.4344C17.8825 12.0171 17.7215 11.5148 17.724 11C17.7239 10.4866 17.8865 9.98635 18.1885 9.57111L19.0351 8.40778C19.287 8.06175 19.433 7.65007 19.4555 7.22267C19.478 6.79528 19.376 6.37054 19.1618 6C18.9479 5.62923 18.631 5.32849 18.2496 5.13423C17.8682 4.93997 17.4386 4.86053 17.0129 4.90556L15.5829 5.05778C15.0722 5.11141 14.5577 5.00212 14.1129 4.74556C13.67 4.48825 13.32 4.09736 13.1129 3.62889L12.524 2.31444C12.3503 1.92317 12.0667 1.59072 11.7078 1.3574C11.3488 1.12408 10.9299 0.99993 10.5018 1C10.0737 0.99993 9.65475 1.12408 9.2958 1.3574C8.93686 1.59072 8.65332 1.92317 8.47958 2.31444L7.89513 3.62889C7.68806 4.09736 7.33801 4.48825 6.89513 4.74556C6.45035 5.00212 5.9358 5.11141 5.42513 5.05778L3.99069 4.90556C3.56502 4.86053 3.13543 4.93997 2.754 5.13423C2.37258 5.32849 2.05571 5.62923 1.8418 6C1.62762 6.37054 1.52558 6.79528 1.54807 7.22267C1.57055 7.65007 1.71659 8.06175 1.96847 8.40778L2.81513 9.57111C3.11707 9.98635 3.27967 10.4866 3.27958 11C3.27967 11.5134 3.11707 12.0137 2.81513 12.4289L1.96847 13.5922C1.71659 13.9382 1.57055 14.3499 1.54807 14.7773C1.52558 15.2047 1.62762 15.6295 1.8418 16C2.05592 16.3706 2.37283 16.6712 2.7542 16.8654C3.13557 17.0596 3.56505 17.1392 3.99069 17.0944L5.42069 16.9422C5.93136 16.8886 6.4459 16.9979 6.89069 17.2544C7.33522 17.511 7.6869 17.902 7.89513 18.3711Z" stroke="#535054" stroke-width="1.5" stroke-linecap="round" stroke-linejoin="round"/>
<path d="M10.5 14C12.1569 14 13.5 12.6569 13.5 11C13.5 9.34315 12.1569 8 10.5 8C8.84316 8 7.50001 9.34315 7.50001 11C7.50001 12.6569 8.84316 14 10.5 14Z" stroke="#535054" stroke-width="1.5" stroke-linecap="round" stroke-linejoin="round"/>
</svg>
